# xmcd CD database file
#
# Track frame offsets:
#	150
#	16795
#	39725
#	61687
#	84497
#
# Disc length: 1363 seconds
#
# Revision: 0
# Processed by: cddbd v1.5.2PL0 Copyright (c) Steve Scherf et al.
# Submitted via: CDex 1.51
#
DISCID=2f055105
DTITLE=Grace Kelly - Working For The Dreamers
DYEAR=2014
DGENRE=Jazz
TTITLE0=Working For The Dreamers
TTITLE1=Cold Cold Water
TTITLE2=Nothing Can Come Between Us
TTITLE3=Touched By An Angel
TTITLE4=What's It All About
EXTD=YEAR: 2014
EXTT0=
EXTT1=
EXTT2=
EXTT3=
EXTT4=
PLAYORDER=
